<svg width="13" height="18" viewBox="0 0 13 18" fill="none" xmlns="http://www.w3.org/2000/svg">
<path d="M12.1009 2.71847H8.96203C9.44781 3.31635 9.78412 4.02633 10.0083 4.81105H12.1009C12.213 4.81105 12.3251 4.88579 12.3998 4.96052C12.4746 5.03526 12.5493 5.14736 12.5493 5.25946V6.15628C12.5493 6.30575 12.4746 6.41786 12.3998 6.49259C12.3251 6.56733 12.213 6.60469 12.1009 6.60469H10.1578C10.0831 8.13676 9.55991 9.36989 8.58836 10.3041C7.6168 11.2383 6.38367 11.6867 4.88897 11.6867H4.40319L10.4194 16.8808C10.5688 17.0302 10.6436 17.1797 10.5688 17.3665C10.4941 17.5908 10.3446 17.6655 10.1204 17.6655H7.84101C7.7289 17.6655 7.6168 17.6281 7.54206 17.5534L0.741171 11.6867C0.629068 11.6119 0.591701 11.4998 0.591701 11.3504V10.0425C0.591701 9.93041 0.629068 9.8183 0.703803 9.74357C0.778538 9.66883 0.890641 9.5941 1.04011 9.5941H4.51529C5.44948 9.5941 6.19683 9.33252 6.79471 8.80938C7.35523 8.28623 7.69153 7.53888 7.76627 6.60469H1.04011C0.890641 6.60469 0.778538 6.56733 0.703803 6.49259C0.629068 6.41786 0.591701 6.30575 0.591701 6.15628V5.25946C0.591701 5.14736 0.629068 5.03526 0.703803 4.96052C0.778538 4.88579 0.890641 4.81105 1.04011 4.81105H7.5047C7.28049 4.25054 6.90682 3.80213 6.38367 3.50319C5.86052 3.20425 5.26264 3.01741 4.55266 3.01741H1.04011C0.890641 3.01741 0.778538 2.98004 0.703803 2.90531C0.629068 2.83057 0.591701 2.71847 0.591701 2.569V1.37324C0.591701 1.26113 0.629068 1.14903 0.703803 1.0743C0.778538 0.999561 0.890641 0.924826 1.04011 0.924826H12.1009C12.213 0.924826 12.3251 0.999561 12.3998 1.0743C12.4746 1.14903 12.5493 1.26113 12.5493 1.37324V2.27006C12.5493 2.41953 12.4746 2.53163 12.3998 2.60637C12.3251 2.6811 12.213 2.71847 12.1009 2.71847Z" fill="#E5DFD9"/>
</svg>
